<svg width="32" height="32" viewBox="0 0 32 32" fill="none" xmlns="http://www.w3.org/2000/svg">
  <!-- Blockchain Network Nodes -->
  <g opacity="0.9">
    <!-- Left side nodes -->
    <rect x="2" y="6" width="4" height="4" fill="#94a3b8" stroke="#3b82f6" stroke-width="0.5" rx="1"/>
    <rect x="2" y="14" width="4" height="4" fill="#94a3b8" stroke="#3b82f6" stroke-width="0.5" rx="1"/>
    <rect x="2" y="22" width="4" height="4" fill="#94a3b8" stroke="#3b82f6" stroke-width="0.5" rx="1"/>
    
    <!-- Right side nodes -->
    <rect x="8" y="8" width="4" height="4" fill="#94a3b8" stroke="#3b82f6" stroke-width="0.5" rx="1"/>
    <rect x="8" y="16" width="4" height="4" fill="#94a3b8" stroke="#3b82f6" stroke-width="0.5" rx="1"/>
    <rect x="8" y="24" width="4" height="4" fill="#94a3b8" stroke="#3b82f6" stroke-width="0.5" rx="1"/>
    
    <!-- Connection lines -->
    <line x1="6" y1="8" x2="8" y2="10" stroke="#ffffff" stroke-width="0.5" opacity="0.7"/>
    <line x1="6" y1="16" x2="8" y2="18" stroke="#ffffff" stroke-width="0.5" opacity="0.7"/>
    <line x1="6" y1="24" x2="8" y2="26" stroke="#ffffff" stroke-width="0.5" opacity="0.7"/>
  </g>
  
  <!-- Shield -->
  <g transform="translate(14, 6)">
    <path
      d="M8 2 L14 5 L14 11 L8 14 L2 11 L2 5 Z"
      fill="#3b82f6"
      stroke="#94a3b8"
      stroke-width="1"
    />
    <!-- Shield content lines -->
    <line x1="5" y1="6" x2="11" y2="6" stroke="#ffffff" stroke-width="0.8"/>
    <line x1="5" y1="8" x2="9" y2="8" stroke="#ffffff" stroke-width="0.8"/>
    <line x1="5" y1="10" x2="11" y2="10" stroke="#ffffff" stroke-width="0.8"/>
    <!-- Exclamation mark -->
    <circle cx="6" cy="4" r="0.8" fill="#ffffff"/>
    <line x1="6" y1="5.5" x2="6" y2="6.5" stroke="#ffffff" stroke-width="0.8" stroke-linecap="round"/>
  </g>
</svg>

